<svg width="24" height="24" viewBox="0 0 24 24" fill="none" xmlns="http://www.w3.org/2000/svg">
<path fill-rule="evenodd" clip-rule="evenodd" d="M19.5 0H4.5C2.01415 0 0 2.01415 0 4.5V19.5C0 21.9858 2.01415 24 4.5 24H19.5C21.9858 24 24 21.9858 24 19.5V4.5C24 2.01415 21.9858 0 19.5 0ZM18.8899 12.9249H16.644V21.2363H12.8935V12.9249H11.4388V10.1252H12.8935V8.34184C12.8945 6.00369 13.8655 4.61538 16.6209 4.61538H19.4132V7.40492H17.7914C16.7188 7.40492 16.6486 7.80461 16.6486 8.5523L16.644 10.1243H19.1954L18.8899 12.9249Z" fill="#5C5C5C" fill-opacity="0.2"/>
</svg>
