<svg width="240" height="56" viewBox="0 0 240 56" fill="none" xmlns="http://www.w3.org/2000/svg">
<path d="M22.667 0V21.333L32 32V21.333V2C32 0.895 31.105 0 30 0H22.667Z" fill="#00A3BA"/>
<path d="M0 2.00001C0 0.895443 0.895431 9.53674e-06 2 9.53674e-06H9.33333V21.3333H2C0.89543 21.3333 0 20.4379 0 19.3333V2.00001Z" fill="#E7585D"/>
<rect x="11.3335" y="1.71661e-05" width="9.33333" height="21.3333" fill="#5865A0"/>
<path d="M50.978 38.588C53.086 40.834 56.385 42.804 60.646 42.804C65.045 42.804 66.786 40.651 66.786 38.634C66.786 35.885 63.532 35.06 59.821 34.098C54.827 32.861 48.962 31.395 48.962 24.935C48.962 19.894 53.407 16 60.096 16C64.861 16 68.71 17.512 71.551 20.261L68.481 24.247C66.098 21.865 62.845 20.765 59.638 20.765C56.476 20.765 54.46 22.277 54.46 24.568C54.46 26.951 57.576 27.73 61.196 28.646C66.236 29.929 72.238 31.486 72.238 38.13C72.238 43.216 68.664 47.569 60.417 47.569C54.781 47.569 50.703 45.599 48 42.712L50.978 38.588Z" fill="black"/>
<path d="M76.4072 41.888V29.104H72.7412V24.889H76.4072V18.841H81.2182V24.889H85.7082V29.104H81.2182V40.696C81.2182 42.208 81.9512 43.308 83.3252 43.308C84.2422 43.308 85.1122 42.941 85.4792 42.529L86.6252 46.148C85.7542 46.973 84.3342 47.569 82.0882 47.569C78.3772 47.569 76.4072 45.553 76.4072 41.888H76.4072Z" fill="black"/>
<path fill-rule="evenodd" clip-rule="evenodd" d="M87.769 35.931C87.769 29.608 92.122 24.339 99.1321 24.339C106.234 24.339 110.541 29.608 110.541 35.931C110.541 42.3 106.234 47.569 99.1321 47.569C92.1221 47.569 87.769 42.3 87.769 35.931ZM105.547 35.931C105.547 32.037 103.256 28.6 99.1321 28.6C95.0541 28.6 92.7641 32.037 92.7641 35.931C92.7641 39.871 95.0541 43.308 99.1321 43.308C103.256 43.308 105.547 39.871 105.547 35.931Z" fill="black"/>
<path d="M114.481 24.889H119.291V28.142C120.941 26.034 123.598 24.385 126.485 24.385V29.15C126.073 29.059 125.569 29.013 124.973 29.013C122.957 29.013 120.254 30.387 119.291 31.945V47.019H114.481L114.481 24.889Z" fill="black"/>
<path d="M131.432 49.218C133.082 51.235 135.648 52.059 138.122 52.059C142.062 52.059 144.399 49.86 144.399 45.92V43.354C142.796 45.141 140.047 46.836 136.565 46.836C131.799 46.836 129.463 44.362 129.463 39.826V24.889H134.273V38.085C134.273 41.521 136.015 42.575 138.718 42.575C141.146 42.575 143.254 41.2 144.399 39.688V24.889H149.21V45.92C149.21 52.564 144.491 56 138.122 56C134.411 56 131.616 54.946 129.187 52.701L131.432 49.218Z" fill="black"/>
<path fill-rule="evenodd" clip-rule="evenodd" d="M153.98 24.89H162.711C170.034 24.89 174.701 29.477 174.701 35.995C174.701 42.473 170.034 47.019 162.751 47.019H153.98V24.89ZM162.751 28.712H158.366V43.197H162.711C167.62 43.197 170.195 39.938 170.195 35.995C170.195 31.971 167.78 28.712 162.751 28.712Z" fill="black"/>
<path d="M178.16 24.89H194.295V28.712H182.546V33.822H194.053V37.645H182.546V43.197H194.295V47.019H178.16V24.89Z" fill="black"/>
<path d="M208.818 24.407C213.244 24.407 216.302 26.701 218.073 29.598L214.451 31.408C213.325 29.557 211.232 28.27 208.818 28.27C204.554 28.27 201.335 31.489 201.335 35.955C201.335 40.38 204.554 43.639 208.818 43.639C211.232 43.639 213.405 42.352 214.451 40.542L218.073 42.312C216.302 45.249 213.244 47.502 208.818 47.502C202.019 47.502 196.869 42.755 196.869 35.955C196.869 29.115 202.019 24.407 208.818 24.407Z" fill="black"/>
<path d="M227.004 37.886L225.153 39.938V47.019H220.768V24.89H225.153V34.989L233.924 24.89H239.276L229.821 35.351L240 47.019H234.649L227.004 37.886Z" fill="black"/>
</svg>
