<svg width="24" height="24" viewBox="0 0 24 24" fill="none" xmlns="http://www.w3.org/2000/svg">
<path fill-rule="evenodd" clip-rule="evenodd" d="M22.7234 0H1.2766C0.57141 0 0 0.57166 0 1.2766V22.7234C0 23.4284 0.5714 24 1.2766 24H22.7234C23.4286 24 24 23.4284 24 22.7234V1.2766C24 0.57166 23.4286 0 22.7234 0ZM21.5581 16.6826C21.3153 17.736 20.4536 18.5129 19.4173 18.6291C16.9609 18.9036 14.4751 18.9054 11.999 18.9036C9.52367 18.9051 7.03712 18.9036 4.58069 18.6291C3.54384 18.5132 2.68214 17.736 2.43984 16.6826C2.09516 15.1823 2.09516 13.5447 2.09516 12.0002C2.09516 10.4556 2.09925 8.81795 2.44418 7.31744C2.68648 6.26399 3.54716 5.48706 4.58452 5.37089C7.04095 5.09668 9.52724 5.0954 12.0031 5.09668C14.4776 5.0954 16.9644 5.09668 19.4209 5.37089C20.458 5.48706 21.3199 6.264 21.5622 7.31744C21.9079 8.8177 21.9049 10.4556 21.9049 12.0002C21.9046 13.5447 21.9031 15.182 21.5581 16.6826Z" fill="#5C5C5C" fill-opacity="0.2"/>
<path d="M10.377 14.1436C11.8968 13.3554 13.4042 12.574 14.9255 11.7853C13.3996 10.9891 11.8934 10.2034 10.377 9.41211V14.1436Z" fill="#5C5C5C" fill-opacity="0.2"/>
</svg>
